<svg xmlns="http://www.w3.org/2000/svg" viewBox="0 0 120 120" role="img" aria-labelledby="t"><title id="t">SFRG OS</title><defs><linearGradient id="g" x1="0" y1="0" x2="1" y2="1"><stop stop-color="#8fe6f2"/><stop offset=".48" stop-color="#9d78e7"/><stop offset="1" stop-color="#d8b15d"/></linearGradient><filter id="s"><feGaussianBlur stdDeviation="1.8" result="b"/><feMerge><feMergeNode in="b"/><feMergeNode in="SourceGraphic"/></feMerge></filter></defs><circle cx="60" cy="60" r="52" fill="#07080b" stroke="url(#g)" stroke-width="1.5"/><g fill="none" stroke="url(#g)" filter="url(#s)"><rect x="26" y="26" width="68" height="68" rx="13" stroke-width="2" transform="rotate(45 60 60)"/><rect x="34" y="34" width="52" height="52" rx="10" stroke-width="2"/><circle cx="60" cy="60" r="18" stroke-width="2.5"/></g><g fill="#f4dfa8"><circle cx="60" cy="17" r="3"/><circle cx="94" cy="39" r="3"/><circle cx="87" cy="82" r="3"/><circle cx="60" cy="103" r="3"/><circle cx="25" cy="82" r="3"/><circle cx="26" cy="39" r="3"/><circle cx="60" cy="60" r="4"/></g><path d="M60 21v21M90 41 73 51M84 79 72 69M60 99V78M29 79l19-10M30 41l18 10" stroke="#8fe6f2" stroke-width="1.4" opacity=".75"/></svg>